                                                                        S      1
,,,44HA1_S1_V1_glass_Aug2020_smaller_9mm_rad_order,22HAutodesk Inventor G      1
2018,7Hunknown,32,38,7,99,15,,1.,2,2HMM,1,0.08,15H20200824.115512,0.01, G      2
10000.,13HMcCormick Lab,,11,0,15H20200719.002507;                       G      3
     186       1                                                00000000D      1
     186            -179       1       0                               0D      2
     514       2                                                00010000D      3
     514                       2       1                               0D      4
     510       4                                                00010000D      5
     510            -179       1       1                               0D      6
     510       5                                                00010000D      7
     510            -179       1       1                               0D      8
     510       6                                                00010000D      9
     510            -179       1       1                               0D     10
     510       7                                                00010000D     11
     510            -179       1       1                               0D     12
     510       8                                                00010000D     13
     510            -179       1       1                               0D     14
     510       9                                                00010000D     15
     510            -179       1       1                               0D     16
     510      10                                                00010000D     17
     510            -179       1       1                               0D     18
     510      11                                                00010000D     19
     510            -179       1       1                               0D     20
     510      12                                                00010000D     21
     510            -179       1       1                               0D     22
     510      13                                                00010000D     23
     510            -179       1       1                               0D     24
     510      14                                                00010000D     25
     510            -179       1       1                               0D     26
     510      15                                                00010000D     27
     510            -179       1       1                               0D     28
     510      16                                                00010000D     29
     510            -179       1       1                               0D     30
     510      17                                                00010000D     31
     510            -179       1       1                               0D     32
     510      18                                                00010000D     33
     510            -179       1       1                               0D     34
     508      19                                                00010000D     35
     508                       1       1                               0D     36
     508      20                                                00010000D     37
     508                       3       1                               0D     38
     508      23                                                00010000D     39
     508                       1       1                               0D     40
     508      24                                                00010000D     41
     508                       1       1                               0D     42
     508      25                                                00010000D     43
     508                       1       1                               0D     44
     508      26                                                00010000D     45
     508                       1       1                               0D     46
     508      27                                                00010000D     47
     508                       1       1                               0D     48
     508      28                                                00010000D     49
     508                       1       1                               0D     50
     508      29                                                00010000D     51
     508                       1       1                               0D     52
     508      30                                                00010000D     53
     508                       1       1                               0D     54
     508      31                                                00010000D     55
     508                       1       1                               0D     56
     508      32                                                00010000D     57
     508                       1       1                               0D     58
     508      33                                                00010000D     59
     508                       1       1                               0D     60
     508      34                                                00010000D     61
     508                       3       1                               0D     62
     508      37                                                00010000D     63
     508                       1       1                               0D     64
     126      38                                                00010000D     65
     126       0               6       0                               0D     66
     126      44                                                00010000D     67
     126       0               3       0                               0D     68
     126      47                                                00010000D     69
     126       0               6       0                               0D     70
     126      53                                                00010000D     71
     126       0               3       0                               0D     72
     126      56                                                00010000D     73
     126       0               6       0                               0D     74
     126      62                                                00010000D     75
     126       0               6       0                               0D     76
     126      68                                                00010000D     77
     126       0               6       0                               0D     78
     126      74                                                00010000D     79
     126       0               6       0                               0D     80
     126      80                                                00010000D     81
     126       0               6       0                               0D     82
     126      86                                                00010000D     83
     126       0               4       0                               0D     84
     126      90                                                00010000D     85
     126       0               6       0                               0D     86
     126      96                                                00010000D     87
     126       0               6       0                               0D     88
     126     102                                                00010000D     89
     126       0               6       0                               0D     90
     126     108                                                00010000D     91
     126       0               5       0                               0D     92
     126     113                                                00010000D     93
     126       0               5       0                               0D     94
     126     118                                                00010000D     95
     126       0               5       0                               0D     96
     126     123                                                00010000D     97
     126       0               6       0                               0D     98
     126     129                                                00010000D     99
     126       0               3       0                               0D    100
     126     132                                                00010000D    101
     126       0               3       0                               0D    102
     126     135                                                00010000D    103
     126       0               5       0                               0D    104
     126     140                                                00010000D    105
     126       0               3       0                               0D    106
     126     143                                                00010000D    107
     126       0               6       0                               0D    108
     126     149                                                00010000D    109
     126       0               3       0                               0D    110
     126     152                                                00010000D    111
     126       0               6       0                               0D    112
     126     158                                                00010000D    113
     126       0               3       0                               0D    114
     126     161                                                00010000D    115
     126       0               6       0                               0D    116
     126     167                                                00010000D    117
     126       0               3       0                               0D    118
     126     170                                                00010000D    119
     126       0               3       0                               0D    120
     126     173                                                00010000D    121
     126       0               6       0                               0D    122
     126     179                                                00010000D    123
     126       0               3       0                               0D    124
     126     182                                                00010000D    125
     126       0               6       0                               0D    126
     126     188                                                00010000D    127
     126       0               3       0                               0D    128
     126     191                                                00010000D    129
     126       0               3       0                               0D    130
     126     194                                                00010000D    131
     126       0               5       0                               0D    132
     126     199                                                00010000D    133
     126       0               3       0                               0D    134
     126     202                                                00010000D    135
     126       0               5       0                               0D    136
     126     207                                                00010000D    137
     126       0               6       0                               0D    138
     126     213                                                00010000D    139
     126       0               6       0                               0D    140
     126     219                                                00010000D    141
     126       0               4       0                               0D    142
     128     223                                                00010000D    143
     128       0    -179       8       0                               0D    144
     128     231                                                00010000D    145
     128       0    -179       7       0                               0D    146
     128     238                                                00010000D    147
     128       0    -179       9       0                               0D    148
     128     247                                                00010000D    149
     128       0    -179       8       0                               0D    150
     128     255                                                00010000D    151
     128       0    -179       8       0                               0D    152
     128     263                                                00010000D    153
     128       0    -179       9       0                               0D    154
     128     272                                                00010000D    155
     128       0    -179       8       0                               0D    156
     128     280                                                00010000D    157
     128       0    -179       8       0                               0D    158
     128     288                                                00010000D    159
     128       0    -179       9       0                               0D    160
     128     297                                                00010000D    161
     128       0    -179       9       0                               0D    162
     128     306                                                00010000D    163
     128       0    -179       9       0                               0D    164
     128     315                                                00010000D    165
     128       0    -179       9       0                               0D    166
     128     324                                                00010000D    167
     128       0    -179       9       0                               0D    168
     128     333                                                00010000D    169
     128       0    -179       7       0                               0D    170
     128     340                                                00010000D    171
     128       0    -179       6       0                               0D    172
     502     346                                                00010000D    173
     502                      18       1                               0D    174
     504     364                                                00010001D    175
     504                      11       1                               0D    176
     406     375                                                00000000D    177
     406                       1      15                               0D    178
     314     376                                                00000200D    179
     314                       1       0                               0D    180
186,3,1,0,0,1,177;                                                     1P      1
514,15,5,1,7,1,9,1,11,1,13,1,15,1,17,1,19,1,21,1,23,1,25,1,27,1,       3P      2
29,1,31,1,33,1;                                                        3P      3
510,143,1,1,35;                                                        5P      4
510,145,1,1,37;                                                        7P      5
510,147,1,1,39;                                                        9P      6
510,149,1,1,41;                                                       11P      7
510,151,1,1,43;                                                       13P      8
510,153,1,1,45;                                                       15P      9
510,155,1,1,47;                                                       17P     10
510,157,1,1,49;                                                       19P     11
510,159,1,1,51;                                                       21P     12
510,161,1,1,53;                                                       23P     13
510,163,1,1,55;                                                       25P     14
510,165,1,1,57;                                                       27P     15
510,167,1,1,59;                                                       29P     16
510,169,1,1,61;                                                       31P     17
510,171,1,1,63;                                                       33P     18
508,4,0,175,1,1,0,0,175,2,1,0,0,175,3,1,0,0,175,4,1,0;                35P     19
508,13,0,175,3,0,0,0,175,5,1,0,0,175,6,1,0,0,175,7,0,0,0,175,8,       37P     20
1,0,0,175,9,0,0,0,175,10,1,0,0,175,11,0,0,0,175,12,1,0,0,175,13,      37P     21
1,0,0,175,14,1,0,0,175,15,1,0,0,175,16,1,0;                           37P     22
508,4,0,175,2,0,0,0,175,17,0,0,0,175,18,0,0,0,175,5,0,0;              39P     23
508,4,0,175,4,0,0,0,175,16,0,0,0,175,19,0,0,0,175,20,0,0;             41P     24
508,4,0,175,7,1,0,0,175,21,1,0,0,175,22,1,0,0,175,23,1,0;             43P     25
508,4,0,175,23,0,0,0,175,24,0,0,0,175,25,0,0,0,175,8,0,0;             45P     26
508,4,0,175,26,1,0,0,175,27,1,0,0,175,9,1,0,0,175,25,1,0;             47P     27
508,4,0,175,11,1,0,0,175,28,1,0,0,175,29,1,0,0,175,30,1,0;            49P     28
508,4,0,175,30,0,0,0,175,31,0,0,0,175,32,1,0,0,175,12,0,0;            51P     29
508,4,0,175,14,0,0,0,175,33,0,0,0,175,34,0,0,0,175,35,1,0;            53P     30
508,4,0,175,15,0,0,0,175,35,0,0,0,175,36,0,0,0,175,19,1,0;            55P     31
508,4,0,175,18,1,0,0,175,37,0,0,0,175,21,0,0,0,175,6,0,0;             57P     32
508,4,0,175,13,0,0,0,175,32,0,0,0,175,38,0,0,0,175,33,1,0;            59P     33
508,13,0,175,1,0,0,0,175,20,1,0,0,175,36,1,0,0,175,34,1,0,0,175,      61P     34
38,1,0,0,175,31,1,0,0,175,29,0,0,0,175,39,0,0,0,175,26,0,0,0,         61P     35
175,24,1,0,0,175,22,0,0,0,175,37,1,0,0,175,17,1,0;                    61P     36
508,4,0,175,27,0,0,0,175,39,1,0,0,175,28,0,0,0,175,10,0,0;            63P     37
126,2,2,0,0,0,0,-0.254288598709037,-0.254288598709037,                65P     38
-0.254288598709037,0.254288598709037,0.254288598709037,               65P     39
0.254288598709037,1.,0.967842498519574,1.,-0.190758449241116,0.,      65P     40
6.07281162882417,0.282046536090785,0.,5.85675832727876,               65P     41
0.589808556708368,0.,5.43782381935568,-0.254288598709037,             65P     42
0.254288598709037,0.,0.,0.;                                           65P     43
126,1,1,0,0,1,0,0.,0.,0.02,0.02,1.,1.,0.589808556708368,0.,           67P     44
5.43782381935568,0.589808556708368,0.2,5.43782381935568,0.,0.02,      67P     45
0.,0.,0.;                                                             67P     46
126,2,2,0,0,0,0,-0.254288598709037,-0.254288598709037,                69P     47
-0.254288598709037,0.254288598709037,0.254288598709037,               69P     48
0.254288598709037,1.,0.967842498519574,1.,0.589808556708368,0.2,      69P     49
5.43782381935568,0.282046536090785,0.2,5.85675832727876,              69P     50
-0.190758449241116,0.2,6.07281162882417,-0.254288598709037,           69P     51
0.254288598709037,0.,0.,0.;                                           69P     52
126,1,1,0,0,1,0,-0.02,-0.02,0.,0.,1.,1.,-0.190758449241117,0.2,       71P     53
6.07281162882417,-0.190758449241117,0.,6.07281162882417,-0.02,        71P     54
0.,0.,0.,0.;                                                          71P     55
126,2,2,0,0,0,0,0.0935136595849009,0.0935136595849009,                73P     56
0.0935136595849009,1.09590000122647,1.09590000122647,                 73P     57
1.09590000122647,1.,0.877009900774671,1.,0.589808556708368,0.2,       73P     58
5.43782381935568,2.44147038184923,0.2,2.91728852393911,               73P     59
1.31400536766127,0.2,-5.55111512312578D-16,0.0935136595849009,        73P     60
1.09590000122647,0.,0.,0.;                                            73P     61
126,2,2,0,0,0,0,0.341502649702106,0.341502649702106,                  75P     62
0.341502649702106,0.700782576821887,0.700782576821887,                75P     63
0.700782576821887,1.,0.983908086191042,1.,1.31400536766127,0.2,       75P     64
5.55111512312578D-16,0.880919569718187,0.2,-1.03149004427151,         75P     65
0.112814059406179,0.2,-1.84484663571192,0.341502649702106,            75P     66
0.700782576821887,0.,0.,0.;                                           75P     67
126,2,2,0,0,0,0,-0.163228380289443,-0.163228380289443,                77P     68
-0.163228380289443,0.163228380289443,0.163228380289443,               77P     69
0.163228380289443,1.,0.986707799857364,1.,-0.145767768429668,         77P     70
0.2,-2.04173825339992,-0.000263454237859661,0.2,                      77P     71
-1.96458583798468,0.112814059406179,0.2,-1.84484663571192,            77P     72
-0.163228380289443,0.163228380289443,0.,0.,0.;                        77P     73
126,2,2,0,0,0,0,0.0344227205014683,0.0344227205014683,                79P     74
0.0344227205014683,0.193900193735258,0.193900193735258,               79P     75
0.193900193735258,1.,0.996822551065588,1.,-0.145767768429668,         79P     76
0.2,-2.04173825339992,-0.48733428978114,0.2,-2.22285097362146,        79P     77
-0.853327589814478,0.2,-2.34742388506251,0.0344227205014683,          79P     78
0.193900193735258,0.,0.,0.;                                           79P     79
126,2,2,0,0,0,0,-0.164034785481271,-0.164034785481271,                81P     80
-0.164034785481271,0.164034785481271,0.164034785481271,               81P     81
0.164034785481271,1.,0.98657643456342,1.,-1.17554374795112,0.2,       81P     82
-2.40075776258946,-1.01002170263639,0.2,-2.4007577625901,             81P     83
-0.853327589814478,0.2,-2.34742388506251,-0.164034785481271,          81P     84
0.164034785481271,0.,0.,0.;                                           81P     85
126,1,1,0,0,1,0,0.0867590267100578,0.0867590267100578,                83P     86
0.334170656218189,0.334170656218189,1.,1.,-1.17554374795112,0.2,      83P     87
-2.40075776258946,-3.64966004303243,0.2,-2.40075776257987,            83P     88
0.0867590267100578,0.334170656218189,0.,0.,0.;                        83P     89
126,2,2,0,0,0,0,-0.327968140557953,-0.327968140557953,                85P     90
-0.327968140557953,0.327968140557954,0.327968140557954,               85P     91
0.327968140557954,1.,0.946698800117316,1.,-3.9546107890414,0.2,       85P     92
-2.29699638072226,-3.81978814275717,0.2,-2.40075776257921,            85P     93
-3.64966004303243,0.2,-2.40075776257987,-0.327968140557953,           85P     94
0.327968140557954,0.,0.,0.;                                           85P     95
126,2,2,0,0,0,0,0.100791212322473,0.100791212322473,                  87P     96
0.100791212322473,0.988067412823478,0.988067412823478,                87P     97
0.988067412823478,1.,0.903196068626376,1.,-3.9546107890414,0.2,       87P     98
-2.29699638072226,-4.63603873819701,0.2,-1.77255996303565,            87P     99
-4.65975427055358,0.2,-0.913016375070843,0.100791212322473,           87P    100
0.988067412823478,0.,0.,0.;                                           87P    101
126,2,2,0,0,0,0,2.69717464920348,2.69717464920348,                    89P    102
2.69717464920348,3.14159265358979,3.14159265358979,                   89P    103
3.14159265358979,1.,0.975412998968781,1.,-4.65975427055358,0.2,       89P    104
-0.913016375070844,-4.690241254833,0.2,0.191951097713319,             89P    105
-5.19282818420932,0.2,1.17647583104487,2.69717464920348,              89P    106
3.14159265358979,0.,0.,0.;                                            89P    107
126,2,2,0,0,0,0,0.,0.,0.,0.740272977088698,0.740272977088698,         91P    108
0.740272977088698,1.,0.932277980558037,1.,-5.19282818420933,0.2,      91P    109
1.17647583104487,-6.50977265777376,0.2,2.83892214235969,              91P    110
-6.36074977136282,0.2,4.95454561164289,0.,0.740272977088698,0.,       91P    111
0.,0.;                                                                91P    112
126,2,2,0,0,0,0,0.,0.,0.,1.22993238175356,1.22993238175356,           93P    113
1.22993238175356,1.,0.816792952895783,1.,-6.36074977136281,0.2,       93P    114
4.95454561164289,-6.35906291552574,0.2,6.21056584513943,              93P    115
-5.17474238157176,0.2,6.62886543310274,0.,1.22993238175356,0.,        93P    116
0.,0.;                                                                93P    117
126,2,2,0,0,0,0,0.,0.,0.,0.635037406880898,0.635037406880898,         95P    118
0.635037406880898,1.,0.950013028065822,1.,-5.17474238157176,0.2,      95P    119
6.62886543310274,-2.59138024587778,0.2,7.16980146822093,              95P    120
-0.190758449241118,0.2,6.07281162882417,0.,0.635037406880898,0.,      95P    121
0.,0.;                                                                95P    122
126,2,2,0,0,0,0,-1.09590000122647,-1.09590000122647,                  97P    123
-1.09590000122647,-0.0935136595849009,-0.0935136595849009,            97P    124
-0.0935136595849009,1.,0.877009900774671,1.,1.31400536766127,0.,      97P    125
-5.55111512312578D-16,2.44147038184923,0.,2.91728852393911,           97P    126
0.589808556708368,0.,5.43782381935568,-1.09590000122647,              97P    127
-0.0935136595849009,0.,0.,0.;                                         97P    128
126,1,1,0,0,1,0,-0.02,-0.02,0.,0.,1.,1.,1.31400536766127,0.2,         99P    129
-2.22044604925031D-15,1.31400536766127,0.,-2.22044604925031D-15,      99P    130
-0.02,0.,0.,0.,0.;                                                    99P    131
126,1,1,0,0,1,0,0.,0.,0.02,0.02,1.,1.,-5.17474238157176,0.,          101P    132
6.62886543310274,-5.17474238157176,0.2,6.62886543310274,0.,0.02,     101P    133
0.,0.,0.;                                                            101P    134
126,2,2,0,0,0,0,-0.635037406880898,-0.635037406880898,               103P    135
-0.635037406880898,0.,0.,0.,1.,0.950013028065822,1.,                 103P    136
-0.190758449241118,0.,6.07281162882417,-2.59138024587778,0.,         103P    137
7.16980146822093,-5.17474238157176,0.,6.62886543310274,              103P    138
-0.635037406880898,0.,0.,0.,0.;                                      103P    139
126,1,1,0,0,1,0,-0.02,-0.02,0.,0.,1.,1.,0.112814059406179,0.2,       105P    140
-1.84484663571192,0.112814059406179,0.,-1.84484663571192,-0.02,      105P    141
0.,0.,0.,0.;                                                         105P    142
126,2,2,0,0,0,0,-0.163228380289443,-0.163228380289443,               107P    143
-0.163228380289443,0.163228380289443,0.163228380289443,              107P    144
0.163228380289443,1.,0.986707799857364,1.,0.112814059406179,0.,      107P    145
-1.84484663571192,-0.000263454237859661,0.,-1.96458583798468,        107P    146
-0.145767768429668,0.,-2.04173825339992,-0.163228380289443,          107P    147
0.163228380289443,0.,0.,0.;                                          107P    148
126,1,1,0,0,1,0,0.,0.,0.02,0.02,1.,1.,-0.145767768429668,0.,         109P    149
-2.04173825339992,-0.145767768429668,0.2,-2.04173825339992,0.,       109P    150
0.02,0.,0.,0.;                                                       109P    151
126,2,2,0,0,0,0,-0.193900193735258,-0.193900193735258,               111P    152
-0.193900193735258,-0.0344227205014683,-0.0344227205014683,          111P    153
-0.0344227205014683,1.,0.996822551065588,1.,-0.853327589814478,      111P    154
0.,-2.34742388506251,-0.48733428978114,0.,-2.22285097362146,         111P    155
-0.145767768429668,0.,-2.04173825339992,-0.193900193735258,          111P    156
-0.0344227205014683,0.,0.,0.;                                        111P    157
126,1,1,0,0,1,0,-0.02,-0.02,0.,0.,1.,1.,-0.853327589814477,0.2,      113P    158
-2.34742388506251,-0.853327589814477,0.,-2.34742388506251,-0.02,     113P    159
0.,0.,0.,0.;                                                         113P    160
126,2,2,0,0,0,0,-0.164034785481271,-0.164034785481271,               115P    161
-0.164034785481271,0.164034785481271,0.164034785481271,              115P    162
0.164034785481271,1.,0.98657643456342,1.,-0.853327589814478,0.,      115P    163
-2.34742388506251,-1.01002170263639,0.,-2.4007577625901,             115P    164
-1.17554374795112,0.,-2.40075776258946,-0.164034785481271,           115P    165
0.164034785481271,0.,0.,0.;                                          115P    166
126,1,1,0,0,1,0,0.,0.,0.02,0.02,1.,1.,-1.17554374795112,0.,          117P    167
-2.40075776258946,-1.17554374795112,0.2,-2.40075776258946,0.,        117P    168
0.02,0.,0.,0.;                                                       117P    169
126,1,1,0,0,1,0,-0.02,-0.02,0.,0.,1.,1.,-3.64966004303243,0.2,       119P    170
-2.40075776257987,-3.64966004303243,0.,-2.40075776257987,-0.02,      119P    171
0.,0.,0.,0.;                                                         119P    172
126,2,2,0,0,0,0,-0.327968140557954,-0.327968140557954,               121P    173
-0.327968140557954,0.327968140557953,0.327968140557953,              121P    174
0.327968140557953,1.,0.946698800117316,1.,-3.64966004303243,0.,      121P    175
-2.40075776257987,-3.81978814275717,0.,-2.40075776257921,            121P    176
-3.9546107890414,0.,-2.29699638072226,-0.327968140557954,            121P    177
0.327968140557953,0.,0.,0.;                                          121P    178
126,1,1,0,0,1,0,0.,0.,0.02,0.02,1.,1.,-3.9546107890414,0.,           123P    179
-2.29699638072226,-3.9546107890414,0.2,-2.29699638072226,0.,         123P    180
0.02,0.,0.,0.;                                                       123P    181
126,2,2,0,0,0,0,-0.988067412823478,-0.988067412823478,               125P    182
-0.988067412823478,-0.100791212322473,-0.100791212322473,            125P    183
-0.100791212322473,1.,0.903196068626376,1.,-4.65975427055358,0.,     125P    184
-0.913016375070843,-4.63603873819701,0.,-1.77255996303565,           125P    185
-3.9546107890414,0.,-2.29699638072226,-0.988067412823478,            125P    186
-0.100791212322473,0.,0.,0.;                                         125P    187
126,1,1,0,0,1,0,0.,0.,0.02,0.02,1.,1.,-4.65975427055358,0.,          127P    188
-0.913016375070843,-4.65975427055358,0.2,-0.913016375070843,0.,      127P    189
0.02,0.,0.,0.;                                                       127P    190
126,1,1,0,0,1,0,0.,0.,0.02,0.02,1.,1.,-5.19282818420933,0.,          129P    191
1.17647583104487,-5.19282818420933,0.2,1.17647583104487,0.,0.02,     129P    192
0.,0.,0.;                                                            129P    193
126,2,2,0,0,0,0,-0.740272977088698,-0.740272977088698,               131P    194
-0.740272977088698,0.,0.,0.,1.,0.932277980558037,1.,                 131P    195
-6.36074977136282,0.,4.95454561164289,-6.50977265777376,0.,          131P    196
2.83892214235969,-5.19282818420933,0.,1.17647583104487,              131P    197
-0.740272977088698,0.,0.,0.,0.;                                      131P    198
126,1,1,0,0,1,0,0.,0.,0.02,0.02,1.,1.,-6.36074977136282,0.,          133P    199
4.95454561164289,-6.36074977136282,0.2,4.95454561164289,0.,0.02,     133P    200
0.,0.,0.;                                                            133P    201
126,2,2,0,0,0,0,-1.22993238175356,-1.22993238175356,                 135P    202
-1.22993238175356,0.,0.,0.,1.,0.816792952895783,1.,                  135P    203
-5.17474238157176,0.,6.62886543310274,-6.35906291552574,0.,          135P    204
6.21056584513943,-6.36074977136281,0.,4.95454561164289,              135P    205
-1.22993238175356,0.,0.,0.,0.;                                       135P    206
126,2,2,0,0,0,0,-0.700782576821887,-0.700782576821887,               137P    207
-0.700782576821887,-0.341502649702106,-0.341502649702106,            137P    208
-0.341502649702106,1.,0.983908086191051,1.,0.112814059406179,0.,     137P    209
-1.84484663571192,0.880919569718187,0.,-1.03149004427151,            137P    210
1.31400536766127,0.,-2.77555756156289D-16,-0.700782576821887,        137P    211
-0.341502649702106,0.,0.,0.;                                         137P    212
126,2,2,0,0,0,0,-3.14159265358979,-3.14159265358979,                 139P    213
-3.14159265358979,-2.69717464920348,-2.69717464920348,               139P    214
-2.69717464920348,1.,0.975412998968781,1.,-5.19282818420932,0.,      139P    215
1.17647583104487,-4.690241254833,0.,0.191951097713319,               139P    216
-4.65975427055358,0.,-0.913016375070844,-3.14159265358979,           139P    217
-2.69717464920348,0.,0.,0.;                                          139P    218
126,1,1,0,0,1,0,0.0867590267100578,0.0867590267100578,               141P    219
0.334170656218189,0.334170656218189,1.,1.,-1.17554374795112,0.,      141P    220
-2.40075776258946,-3.64966004303243,0.,-2.40075776257987,            141P    221
0.0867590267100578,0.334170656218189,0.,0.,0.;                       141P    222
128,1,2,1,2,0,0,0,0,0,-0.1,-0.1,0.,0.,-0.254288598709037,            143P    223
-0.254288598709037,-0.254288598709037,0.254288598709037,             143P    224
0.254288598709037,0.254288598709037,1.,1.,0.967842498519564,         143P    225
0.967842498519564,1.,1.,0.589808556708368,0.,5.43782381935568,       143P    226
0.589808556708368,0.2,5.43782381935568,0.282046536090785,0.,         143P    227
5.85675832727876,0.282046536090785,0.2,5.85675832727876,             143P    228
-0.190758449241116,0.,6.07281162882417,-0.190758449241116,0.2,       143P    229
6.07281162882417,-0.1,0.,-0.254288598709037,0.254288598709037;       143P    230
128,1,1,1,1,0,0,1,0,0,-0.46965415670437,-0.46965415670437,           145P    231
0.489401766376732,0.489401766376732,-0.410848255478655,              145P    232
-0.410848255478655,0.486276048483644,0.486276048483644,1.,1.,1.,     145P    233
1.,-6.51977265777376,0.2,-2.4107577625901,-6.51977265777376,0.2,     145P    234
7.17980146822093,2.45147038184923,0.2,-2.4107577625901,              145P    235
2.45147038184923,0.2,7.17980146822093,-0.46965415670437,             145P    236
0.489401766376732,-0.410848255478655,0.486276048483644;              145P    237
128,1,2,1,2,0,0,0,0,0,0.,0.,0.0350336659368075,                      147P    238
0.0350336659368075,0.0935136595849008,0.0935136595849008,            147P    239
0.0935136595849008,1.09590000122647,1.09590000122647,                147P    240
1.09590000122647,1.,1.,0.877009900774669,0.877009900774669,1.,       147P    241
1.,0.589808556708368,0.2,5.43782381935568,0.589808556708368,0.,      147P    242
5.43782381935568,2.44147038184924,0.2,2.91728852393911,              147P    243
2.44147038184924,0.,2.91728852393911,1.31400536766127,0.2,           147P    244
-1.94289029309402D-15,1.31400536766127,0.,-1.94289029309402D-15,     147P    245
0.,0.0350336659368075,0.0935136595849008,1.09590000122647;           147P    246
128,1,2,1,2,0,0,0,0,0,0.,0.,0.0249025765374339,                      149P    247
0.0249025765374339,0.,0.,0.,0.635037406880898,0.635037406880898,     149P    248
0.635037406880898,1.,1.,0.950013028065821,0.950013028065821,1.,      149P    249
1.,-5.17474238157176,0.2,6.62886543310274,-5.17474238157176,0.,      149P    250
6.62886543310274,-2.59138024587778,0.2,7.16980146822093,             149P    251
-2.59138024587778,0.,7.16980146822093,-0.190758449241118,0.2,        149P    252
6.07281162882417,-0.190758449241118,0.,6.07281162882417,0.,          149P    253
0.0249025765374339,0.,0.635037406880898;                             149P    254
128,1,2,1,2,0,0,0,0,0,0.,0.,0.2,0.2,-0.163228380289444,              151P    255
-0.163228380289444,-0.163228380289444,0.163228380289443,             151P    256
0.163228380289443,0.163228380289443,1.,1.,0.986707799857343,         151P    257
0.986707799857343,1.,1.,0.112814059406179,0.2,-1.84484663571192,     151P    258
0.112814059406179,0.,-1.84484663571192,-0.00026345423785927,0.2,     151P    259
-1.96458583798468,-0.00026345423785927,0.,-1.96458583798468,         151P    260
-0.145767768429669,0.2,-2.04173825339992,-0.145767768429669,0.,      151P    261
-2.04173825339992,0.,0.2,-0.163228380289444,0.163228380289443;       151P    262
128,1,2,1,2,0,0,0,0,0,0.,0.,0.0413375628190613,                      153P    263
0.0413375628190613,0.0344227205014683,0.0344227205014683,            153P    264
0.0344227205014683,0.193900193735258,0.193900193735258,              153P    265
0.193900193735258,1.,1.,0.996822551065566,0.996822551065566,1.,      153P    266
1.,-0.145767768429668,0.2,-2.04173825339992,-0.145767768429668,      153P    267
0.,-2.04173825339992,-0.487334289781141,0.2,-2.22285097362146,       153P    268
-0.487334289781141,0.,-2.22285097362146,-0.853327589814478,0.2,      153P    269
-2.34742388506251,-0.853327589814478,0.,-2.34742388506251,0.,        153P    270
0.0413375628190613,0.0344227205014683,0.193900193735258;             153P    271
128,1,2,1,2,0,0,0,0,0,-0.2,-0.2,0.,0.,-0.164034785481271,            155P    272
-0.164034785481271,-0.164034785481271,0.164034785481271,             155P    273
0.164034785481271,0.164034785481271,1.,1.,0.986576434563435,         155P    274
0.986576434563435,1.,1.,-1.17554374795112,0.,-2.40075776258946,      155P    275
-1.17554374795112,0.2,-2.40075776258946,-1.01002170263639,0.,        155P    276
-2.4007577625901,-1.01002170263639,0.2,-2.4007577625901,             155P    277
-0.853327589814477,0.,-2.34742388506251,-0.853327589814477,0.2,      155P    278
-2.34742388506251,-0.2,0.,-0.164034785481271,0.164034785481271;      155P    279
128,1,2,1,2,0,0,0,0,0,0.,0.,0.4,0.4,-0.327968140557954,              157P    280
-0.327968140557954,-0.327968140557954,0.327968140557953,             157P    281
0.327968140557953,0.327968140557953,1.,1.,0.946698800117319,         157P    282
0.946698800117319,1.,1.,-3.64966004303243,0.2,-2.40075776257987,     157P    283
-3.64966004303243,0.,-2.40075776257987,-3.81978814275717,0.2,        157P    284
-2.40075776257921,-3.81978814275717,0.,-2.40075776257921,            157P    285
-3.9546107890414,0.2,-2.29699638072226,-3.9546107890414,0.,          157P    286
-2.29699638072226,0.,0.4,-0.327968140557954,0.327968140557953;       157P    287
128,1,2,1,2,0,0,0,0,0,0.,0.,0.110535829390704,0.110535829390704,     159P    288
0.100791212322473,0.100791212322473,0.100791212322473,               159P    289
0.988067412823478,0.988067412823478,0.988067412823478,1.,1.,         159P    290
0.903196068626378,0.903196068626378,1.,1.,-3.9546107890414,0.2,      159P    291
-2.29699638072226,-3.9546107890414,0.,-2.29699638072226,             159P    292
-4.63603873819701,0.2,-1.77255996303565,-4.63603873819701,0.,        159P    293
-1.77255996303565,-4.65975427055358,0.2,-0.913016375070843,          159P    294
-4.65975427055358,0.,-0.913016375070843,0.,0.110535829390704,        159P    295
0.100791212322473,0.988067412823478;                                 159P    296
128,1,2,1,2,0,0,0,0,0,0.,0.,0.0365907400438291,                      161P    297
0.0365907400438291,1.01559705211832D-16,1.01559705211832D-16,        161P    298
1.01559705211832D-16,0.740272977088698,0.740272977088698,            161P    299
0.740272977088698,1.,1.,0.932277980558044,0.932277980558044,1.,      161P    300
1.,-5.19282818420933,0.2,1.17647583104487,-5.19282818420933,0.,      161P    301
1.17647583104487,-6.50977265777376,0.2,2.83892214235969,             161P    302
-6.50977265777376,0.,2.83892214235969,-6.36074977136282,0.2,         161P    303
4.95454561164289,-6.36074977136282,0.,4.95454561164289,0.,           161P    304
0.0365907400438291,1.01559705211832D-16,0.740272977088698;           161P    305
128,1,2,1,2,0,0,0,0,0,0.,0.,0.112472096894605,0.112472096894605,     163P    306
1.52428114746413D-19,1.52428114746413D-19,1.52428114746413D-19,      163P    307
1.22993238175356,1.22993238175356,1.22993238175356,1.,1.,            163P    308
0.816792952895783,0.816792952895783,1.,1.,-6.36074977136281,0.2,     163P    309
4.95454561164289,-6.36074977136281,0.,4.95454561164289,              163P    310
-6.35906291552574,0.2,6.21056584513943,-6.35906291552574,0.,         163P    311
6.21056584513943,-5.17474238157176,0.2,6.62886543310274,             163P    312
-5.17474238157176,0.,6.62886543310274,0.,0.112472096894605,          163P    313
1.52428114746413D-19,1.22993238175356;                               163P    314
128,1,2,1,2,0,0,0,0,0,0.,0.,0.0324652375779642,                      165P    315
0.0324652375779642,0.341502649702106,0.341502649702106,              165P    316
0.341502649702106,0.700782576821887,0.700782576821887,               165P    317
0.700782576821887,1.,1.,0.983908086191042,0.983908086191042,1.,      165P    318
1.,1.31400536766127,0.2,2.08166817117217D-16,1.31400536766127,       165P    319
0.,2.08166817117217D-16,0.880919569718188,0.2,-1.03149004427151,     165P    320
0.880919569718188,0.,-1.03149004427151,0.112814059406179,0.2,        165P    321
-1.84484663571192,0.112814059406179,0.,-1.84484663571192,0.,         165P    322
0.0324652375779642,0.341502649702106,0.700782576821887;              165P    323
128,1,2,1,2,0,0,0,0,0,0.,0.,0.0408797710480874,                      167P    324
0.0408797710480874,-3.14159265358979,-3.14159265358979,              167P    325
-3.14159265358979,-2.69717464920348,-2.69717464920348,               167P    326
-2.69717464920348,1.,1.,0.975412998968786,0.975412998968786,1.,      167P    327
1.,-5.19282818420933,0.,1.17647583104487,-5.19282818420933,0.2,      167P    328
1.17647583104487,-4.690241254833,0.,0.191951097713322,               167P    329
-4.690241254833,0.2,0.191951097713322,-4.65975427055358,0.,          167P    330
-0.913016375070844,-4.65975427055358,0.2,-0.913016375070844,0.,      167P    331
0.0408797710480874,-3.14159265358979,-2.69717464920348;              167P    332
128,1,1,1,1,0,0,1,0,0,-0.46965415670437,-0.46965415670437,           169P    333
0.489401766376732,0.489401766376732,-0.410848255478655,              169P    334
-0.410848255478655,0.486276048483644,0.486276048483644,1.,1.,1.,     169P    335
1.,-6.51977265777376,0.,7.17980146822093,-6.51977265777376,0.,       169P    336
-2.4107577625901,2.45147038184923,0.,7.17980146822093,               169P    337
2.45147038184923,0.,-2.4107577625901,-0.46965415670437,              169P    338
0.489401766376732,-0.410848255478655,0.486276048483644;              169P    339
128,1,1,1,1,0,0,1,0,0,0.0857590267100578,0.0857590267100578,         171P    340
0.335170656218189,0.335170656218189,-0.001,-0.001,0.021,0.021,       171P    341
1.,1.,1.,1.,-1.16554374795112,-0.01,-2.40075776258949,               171P    342
-3.65966004303243,-0.01,-2.40075776257983,-1.16554374795112,         171P    343
0.21,-2.40075776258949,-3.65966004303243,0.21,-2.40075776257983,     171P    344
0.0857590267100578,0.335170656218189,-0.001,0.021;                   171P    345
502,26,-0.190758449241117,0.,6.07281162882417,0.589808556708368,     173P    346
0.,5.43782381935568,0.589808556708368,0.2,5.43782381935568,          173P    347
-0.190758449241117,0.2,6.07281162882417,1.31400536766127,0.2,        173P    348
2.08166817117217D-16,0.112814059406179,0.2,-1.84484663571192,        173P    349
-0.145767768429668,0.2,-2.04173825339992,-0.853327589814477,0.2,     173P    350
-2.34742388506251,-1.17554374795112,0.2,-2.40075776258946,           173P    351
-3.64966004303243,0.2,-2.40075776257987,-3.9546107890414,0.2,        173P    352
-2.29699638072226,-4.65975427055358,0.2,-0.913016375070843,          173P    353
-5.19282818420933,0.2,1.17647583104487,-6.36074977136282,0.2,        173P    354
4.95454561164289,-5.17474238157176,0.2,6.62886543310274,             173P    355
1.31400536766127,0.,2.08166817117217D-16,-5.17474238157176,0.,       173P    356
6.62886543310274,0.112814059406179,0.,-1.84484663571192,             173P    357
-0.145767768429668,0.,-2.04173825339992,-0.853327589814477,0.,       173P    358
-2.34742388506251,-1.17554374795112,0.,-2.40075776258946,            173P    359
-3.64966004303243,0.,-2.40075776257987,-3.9546107890414,0.,          173P    360
-2.29699638072226,-4.65975427055358,0.,-0.913016375070843,           173P    361
-5.19282818420933,0.,1.17647583104487,-6.36074977136282,0.,          173P    362
4.95454561164289;                                                    173P    363
504,39,65,173,1,173,2,67,173,2,173,3,69,173,3,173,4,71,173,4,        175P    364
173,1,73,173,3,173,5,75,173,5,173,6,77,173,7,173,6,79,173,7,173,     175P    365
8,81,173,9,173,8,83,173,9,173,10,85,173,11,173,10,87,173,11,173,     175P    366
12,89,173,12,173,13,91,173,13,173,14,93,173,14,173,15,95,173,15,     175P    367
173,4,97,173,16,173,2,99,173,5,173,16,101,173,17,173,15,103,173,     175P    368
1,173,17,105,173,6,173,18,107,173,18,173,19,109,173,19,173,7,        175P    369
111,173,20,173,19,113,173,8,173,20,115,173,20,173,21,117,173,21,     175P    370
173,9,119,173,10,173,22,121,173,22,173,23,123,173,23,173,11,125,     175P    371
173,24,173,23,127,173,24,173,12,129,173,25,173,13,131,173,26,        175P    372
173,25,133,173,26,173,14,135,173,17,173,26,137,173,18,173,16,        175P    373
139,173,25,173,24,141,173,21,173,22;                                 175P    374
406,1,6HSolid1;                                                      177P    375
314,0.,0.,0.,;                                                       179P    376
S      1G      3D    180P    376                                        T      1
